<?xml version="1.0" standalone="no"?><!DOCTYPE svg PUBLIC "-//W3C//DTD SVG 1.1//EN" "http://www.w3.org/Graphics/SVG/1.1/DTD/svg11.dtd"><svg t="1676962773457" class="icon" viewBox="0 0 1024 1024" version="1.1" xmlns="http://www.w3.org/2000/svg" p-id="5468" xmlns:xlink="http://www.w3.org/1999/xlink" width="200" height="200"><path d="M442.0096 302.7968l76.4928-83.3536H200.6528c-14.592 0-28.1088 7.68-35.584 20.2752l-94.208 158.8224c-16.3328 27.5968 3.5328 62.464 35.584 62.464h366.5408l-9.7792-6.0416c-53.2992-32.768-63.5392-106.0352-21.1968-152.1664zM107.2128 517.4272v309.5552c0 33.8944 28.6208 61.44 63.9488 61.44h295.936v-370.944H107.2128z m170.5472 265.3184c0 16.6912-13.5168 30.208-30.208 30.208s-30.208-13.5168-30.208-30.208v-153.7024c0-16.6912 13.5168-30.208 30.208-30.208s30.208 13.5168 30.208 30.208v153.7024z m133.4272 0c0 16.6912-13.5168 30.208-30.208 30.208s-30.208-13.5168-30.208-30.208v-153.7024c0-16.6912 13.5168-30.208 30.208-30.208s30.208 13.5168 30.208 30.208v153.7024zM759.808 728.9856h-80.1792c-4.4032 0-7.4752 2.9184-7.4752 5.5296v153.9072h95.1808v-153.9072c-0.0512-2.6112-3.1232-5.5296-7.5264-5.5296z" fill="#ffffff" p-id="5469"></path><path d="M948.9408 334.1824l-205.9264-208.896c-13.568-13.7728-35.84-13.6704-49.2544 0.256L491.3152 335.616c-21.0432 21.8624-5.5808 58.2656 24.7808 58.2656H525.6704v494.4896h94.0032v-153.9072c0-32 26.9312-58.0608 60.0064-58.0608h80.1792c33.0752 0 60.0064 26.0096 60.0064 58.0608v153.9072h102.2976v-495.616h2.4064c30.464-0.0512 45.824-36.864 24.3712-58.5728z m-147.9168 116.992l-18.7904 18.3296c-4.1984 4.096-6.144 9.984-5.12 15.8208l4.4544 25.856c2.5088 14.592-12.8 25.7024-25.9072 18.8416l-23.1936-12.1856a17.92 17.92 0 0 0-16.5888 0l-23.1936 12.1856c-13.1072 6.8608-28.416-4.2496-25.9072-18.8416l4.4544-25.856c0.9728-5.7856-0.9216-11.6736-5.12-15.8208l-18.7904-18.3296c-10.5984-10.3424-4.7616-28.3136 9.8816-30.464l25.9584-3.7888c5.8368-0.8192 10.8544-4.5056 13.4144-9.7792l11.6224-23.5008c6.5536-13.2608 25.4464-13.2608 32 0l11.6224 23.5008a17.94048 17.94048 0 0 0 13.4144 9.7792l25.9584 3.7888c14.592 2.1504 20.4288 20.1216 9.8304 30.464z" fill="#ffffff" p-id="5470"></path></svg>
