<?xml version="1.0" standalone="no"?><!DOCTYPE svg PUBLIC "-//W3C//DTD SVG 1.1//EN" "http://www.w3.org/Graphics/SVG/1.1/DTD/svg11.dtd"><svg t="1678164248805" class="icon" viewBox="0 0 1024 1024" version="1.1" xmlns="http://www.w3.org/2000/svg" p-id="1978" xmlns:xlink="http://www.w3.org/1999/xlink" width="200" height="200"><path d="M526.975339 1024c-8.221755 0-14.877461-6.655706-14.877461-14.877461V832.648442l-9.494169-0.97878c-14.192315-1.468171-28.580386-4.306634-42.674824-8.417511l-13.605046-4.013v126.164787c0 8.221755-6.655706 14.877461-14.877462 14.877461-8.221755 0-14.877461-6.655706-14.877461-14.877461V818.064615c0-0.97878 0.097878-2.055439 0.391512-3.327853l1.761805-7.732365-6.949341-3.817243c-75.659721-42.087555-122.641178-121.760275-122.641177-207.892946 0-8.221755 6.655706-14.877461 14.877461-14.877462 13.017779 0 26.231313 1.076658 39.444848 3.327854l30.733703 5.187535-21.239534-22.805582c-41.108775-44.240872-63.816479-101.695278-63.816478-161.792391 0-8.221755 6.655706-14.877461 14.877461-14.877462 51.77748 0 101.010132 16.44351 142.314663 47.470847l29.461288 22.120436-13.213535-34.35519c-10.570828-27.307972-15.856242-56.181992-15.856241-85.64328 0-63.522845 24.763143-123.228446 69.689161-168.154464 2.838463-2.838463 6.557828-4.404512 10.570827-4.404512 4.012999 0 7.732365 1.566049 10.570828 4.404512 66.361308 66.361308 87.405085 166.001147 53.539285 253.895622l-13.213535 34.35519 29.461289-22.120436c14.290193-10.766584 29.559167-19.771363 45.611164-27.014337 4.404512-1.957561 8.906901-3.817243 13.409291-5.48117 26.427069-9.98356 54.615943-15.073217 83.587842-15.073218 8.221755 0 14.877461 6.655706 14.877461 14.877462 0 60.194991-22.707704 117.649398-63.816479 161.792391l-21.239533 22.805582 30.635825-5.089657c13.213535-2.251195 26.524947-3.327853 39.444848-3.327854 8.221755 0 14.877461 6.655706 14.877461 14.877462 0 86.230549-46.981457 165.903269-122.641178 207.892946l-6.94934 3.817243 1.761804 7.732365c0.293634 1.272414 0.391512 2.349073 0.391513 3.327853v127.339323c0 8.221755-6.655706 14.877461-14.877462 14.877461s-14.877461-6.655706-14.877461-14.877461v-126.262665l-13.605047 4.013c-14.094437 4.110877-28.38463 6.94934-42.674823 8.417511l-9.494169 0.97878v176.376219c0.097878 8.221755-6.557828 14.975339-14.779584 14.975339z m-48.939017-367.825655c15.95412 17.128656 29.167654 36.312751 39.444848 57.062895l9.494169 19.281972 9.49417-19.281972c10.277194-20.848021 23.490728-40.032116 39.444848-57.062895l21.239533-22.805582-30.733703 5.187536c-13.017779 2.153317-26.231313 3.327853-39.249092 3.327853h-0.195756c-13.017779 0-26.231313-1.076658-39.34697-3.327853l-30.733703-5.187536 21.141656 22.805582z" fill="#FF9D00" p-id="1979"></path><path d="M522.570828 130.373542a12.43051 2.349073 90 1 0 4.698145 0 12.43051 2.349073 90 1 0-4.698145 0Z" fill="#E61F19" p-id="1980"></path><path d="M533.648369 128.901134a12.43051 2.349073 60 1 0 4.068714-2.349073 12.43051 2.349073 60 1 0-4.068714 2.349073Z" fill="#E61F19" p-id="1981"></path><path d="M542.532695 122.025688a12.43051 2.349073 30 1 0 2.349073-4.068714 12.43051 2.349073 30 1 0-2.349073 4.068714Z" fill="#E61F19" p-id="1982"></path><path d="M534.316192 109.329765a12.43051 2.349073 0 1 0 24.861021 0 12.43051 2.349073 0 1 0-24.861021 0Z" fill="#E61F19" p-id="1983"></path><path d="M533.300858 104.671857a2.349073 12.43051 60 1 0 21.530276-12.43051 2.349073 12.43051 60 1 0-21.530276 12.43051Z" fill="#E61F19" p-id="1984"></path><path d="M530.176457 101.286205a2.349073 12.43051 30 1 0 12.43051-21.530275 2.349073 12.43051 30 1 0-12.43051 21.530275Z" fill="#E61F19" p-id="1985"></path><path d="M523.353852 87.405085a12.43051 2.349073 90 1 0 4.698146 0 12.43051 2.349073 90 1 0-4.698146 0Z" fill="#E61F19" p-id="1986"></path><path d="M512.810094 91.332764a12.43051 2.349073 60 1 0 4.068713-2.349072 12.43051 2.349073 60 1 0-4.068713 2.349072Z" fill="#E61F19" p-id="1987"></path><path d="M505.746554 99.87228a12.43051 2.349073 30 1 0 2.349072-4.068713 12.43051 2.349073 30 1 0-2.349072 4.068713Z" fill="#E61F19" p-id="1988"></path><path d="M491.347735 108.546741a12.43051 2.349073 0 1 0 24.86102 0 12.43051 2.349073 0 1 0-24.86102 0Z" fill="#E61F19" p-id="1989"></path><path d="M495.731869 125.509774a2.349073 12.43051 60 1 0 21.530275-12.43051 2.349073 12.43051 60 1 0-21.530275 12.43051Z" fill="#E61F19" p-id="1990"></path><path d="M508.021712 138.071988a2.349073 12.43051 30 1 0 12.430511-21.530275 2.349073 12.43051 30 1 0-12.430511 21.530275Z" fill="#E61F19" p-id="1991"></path><path d="M599.698719 30.146435m-15.073217 0a15.073217 15.073217 0 1 0 30.146435 0 15.073217 15.073217 0 1 0-30.146435 0Z" fill="#2C65AF" p-id="1992"></path><path d="M510.042439 15.073217m-15.073217 0a15.073217 15.073217 0 1 0 30.146435 0 15.073217 15.073217 0 1 0-30.146435 0Z" fill="#E61F19" p-id="1993"></path><path d="M402.768113 148.970369c4.600268-2.349073 6.851462-6.94934 5.089658-10.277194l-33.670044-65.088893c-1.761805-3.327853-6.851462-4.110877-11.353852-1.761804-4.600268 2.349073-6.851462 6.94934-5.089658 10.277193l33.670044 65.088893c1.663927 3.327853 6.753584 4.110877 11.353852 1.761805z" fill="#DAB647" p-id="1994"></path><path d="M421.36494 90.439304c-2.349073-4.600268-6.94934-6.851462-10.277194-5.089658l-65.088893 33.670044c-3.327853 1.761805-4.110877 6.851462-1.761805 11.353852s6.94934 6.851462 10.277194 5.089658l65.088893-33.670044c3.327853-1.663927 4.110877-6.753584 1.761805-11.353852z" fill="#DAB647" p-id="1995"></path><path d="M664.3961 82.119671c21.141656 0 38.270312 17.030778 38.270312 37.8788S685.537756 157.975148 664.3961 157.975148s-38.270312-17.030778-38.270311-37.878799 17.128656-37.976677 38.270311-37.976678z m0 65.77404c15.562608 0 28.188874-12.528388 28.188874-27.89524s-12.626266-27.89524-28.188874-27.89524-28.188874 12.528388-28.188874 27.89524 12.626266 27.89524 28.188874 27.89524z" fill="#E62A52" p-id="1996"></path><path d="M504.854903 818.651883l-35.529726-4.99178c-39.151214-5.48117-77.225769-20.162875-110.112789-42.674823-6.655706-4.600268-8.417511-13.702925-3.817244-20.358631 4.600268-6.655706 13.702925-8.417511 20.358632-3.817244 28.286752 19.379851 60.978016 32.201873 94.648059 37.38941-15.073217-98.954693-93.767157-177.648633-192.72185-192.721851 2.936341 19.086217 8.221755 37.780921 15.856241 55.594724 3.229975 7.438731-0.293634 16.051998-7.732364 19.281973-7.438731 3.229975-16.051998-0.293634-19.281973-7.732365-9.102657-21.141656-15.268973-43.359969-18.401071-66.067673l-4.99178-35.529727 35.529727 4.99178C393.078188 577.871917 484.006882 668.800612 499.961002 783.024278l4.893901 35.627605z" fill="" p-id="1997"></path><path d="M331.121392 742.992162c-4.012999 0-7.928121-1.566049-10.864462-4.796024-8.417511-9.200535-24.861021-28.286752-33.278532-41.30453-4.404512-6.851462-2.446951-15.856242 4.404512-20.260753s15.856242-2.446951 20.260753 4.404511c6.362072 9.885682 20.162875 26.427069 30.342191 37.487287 5.48117 5.97056 4.99178 15.268973-0.978781 20.750144-2.838463 2.446951-6.362072 3.719365-9.885681 3.719365zM481.070541 819.239151l4.99178-35.529726c15.856242-114.027911 106.58918-204.760849 220.61709-220.617091l35.529727-4.99178-4.99178 35.529727c-15.856242 114.027911-106.58918 204.760849-220.61709 220.61709l-35.529727 4.99178zM707.75607 592.651501c-98.758937 15.073217-177.159243 93.473523-192.232461 192.134582C614.282546 769.712866 692.584974 691.31256 707.75607 592.651501z m0.880902-14.97534zM497.611929 628.376983l-35.138215-4.893901C351.088511 608.018352 262.411011 519.340853 246.946282 407.955649l-4.893902-35.138214 35.138215 4.893901c111.385204 15.464729 200.062703 104.142229 215.527432 215.527433l4.893902 35.138214zM276.505448 407.270503c14.877461 95.724718 90.830816 171.775951 186.653413 186.653412-14.877461-95.724718-90.928694-171.775951-186.653413-186.653412z" fill="" p-id="1998"></path><path d="M501.233416 628.768496l4.893902-34.942459c9.787803-70.374307 49.624164-133.701396 109.134009-173.537756 6.753584-4.50239 15.856242-2.740585 20.358631 4.013 4.50239 6.753584 2.740585 15.856242-4.012999 20.358631-51.581724 34.550946-86.426305 88.873256-95.920475 149.557637 94.354426-14.681705 169.329-89.65628 184.108584-184.108583-16.247754 2.544829-32.103995 6.851462-47.372969 13.017778-7.536609 3.034219-16.051998-0.685146-19.086217-8.221755-3.034219-7.536609 0.685146-16.051998 8.221755-19.086216 18.596827-7.438731 37.976677-12.528388 57.845919-15.366852l34.942458-4.893902-4.893902 34.942459c-15.366851 110.210667-103.065571 197.909386-213.178359 213.17836L501.233416 628.768496z" fill="" p-id="1999"></path><path d="M497.416173 620.546741l-23.294972-70.276429c-34.550946-46.492067-52.854139-101.793156-52.854139-160.226343 0-59.216211 18.792583-115.300325 54.322309-162.183904l22.022558-29.069776 22.022558 29.069776c71.646721 94.843816 72.136112 226.979163 1.46817 322.312369l-23.686484 70.374307z m0.195756-373.111069c-30.733703 41.304531-46.981457 90.537182-46.981457 142.608297 0 51.973236 16.247754 101.205888 46.981457 142.608296 62.348308-84.272988 62.348308-200.845727 0-285.216593z m-10.375072-10.668706zM400.223284 948.927547c-8.123877 0-14.681705-6.557828-14.681705-14.681705V782.9264c0-8.123877 6.557828-14.681705 14.681705-14.681705s14.681705 6.557828 14.681705 14.681705v151.319442c0 8.025999-6.557828 14.681705-14.681705 14.681705zM494.08832 1009.318295c-8.123877 0-14.681705-6.557828-14.681706-14.681705V782.9264c0-8.123877 6.557828-14.681705 14.681706-14.681705s14.681705 6.557828 14.681705 14.681705v211.71019c0 8.123877-6.655706 14.681705-14.681705 14.681705zM587.170331 965.468935c-8.123877 0-14.681705-6.557828-14.681705-14.681705V782.9264c0-8.123877 6.557828-14.681705 14.681705-14.681705s14.681705 6.557828 14.681705 14.681705V950.78723c0 8.123877-6.557828 14.681705-14.681705 14.681705z" fill="" p-id="2000"></path></svg>